<svg width="47" height="58" viewBox="0 0 47 58" fill="none" xmlns="http://www.w3.org/2000/svg">
<path d="M42.3059 11.5098C42.2506 11.5489 42.1928 11.5868 42.1374 11.6259C41.9492 11.7531 41.8877 12.0074 41.9639 12.2115C42.0943 12.5612 42.226 12.9097 42.3576 13.2569C41.9356 14.0907 41.633 15.306 41.7523 15.0028C41.1545 16.5054 40.1346 17.86 39.2206 19.1878C38.0003 20.963 36.7652 22.6575 35.7232 24.5428C33.8435 27.9453 32.8039 31.6059 33.2702 35.2444C30.6204 29.9749 26.6653 24.1834 21.4911 21.0303C22.9587 15.9699 28.2387 13.1884 29.929 8.15003C30.5441 6.31734 30.7114 4.70959 29.5452 3.08351C28.2658 1.30095 25.5963 2.17759 24.157 0.326556C23.7301 -0.222397 22.8185 -0.068379 22.8074 0.706757C22.7878 2.22035 21.2931 1.06744 20.534 1.78389C19.545 2.71797 18.7072 3.5909 18.6654 5.02869C18.6555 5.37958 18.6445 5.74395 18.6334 6.10217C18.038 4.59958 17.1965 3.21435 15.9614 2.04186C15.6908 1.78389 15.168 1.7472 14.9145 2.06141C14.0017 3.19844 12.5231 3.50776 11.5475 4.61667C10.9263 5.32211 8.33672 7.72088 7.54202 8.06321C7.27999 8.17569 7.17543 8.54247 7.24801 8.79555C8.08946 11.7298 10.0553 13.587 12.2832 15.2412C10.8549 14.669 9.4279 14.224 8.12021 13.922C4.30416 13.0405 2.02216 15.3243 1.19056 18.821C0.912534 19.9886 0.750149 20.5754 0.242081 21.677C0.0255676 22.144 -0.0802286 22.4729 0.0710847 23.0072C0.531175 24.6345 2.63357 25.7238 4.27587 25.6285C6.96137 25.4708 8.66641 23.5684 11.1883 22.951C12.9352 22.5218 14.9182 22.7517 16.7057 22.6991C17.6948 22.6698 18.7589 22.3128 19.7935 22.1563C19.8193 22.1746 19.8439 22.1868 19.871 22.2052C20.0149 22.3079 20.1601 22.2272 20.24 22.1013C20.2671 22.0988 20.2966 22.0939 20.3249 22.0915C20.5414 22.2981 20.7653 22.501 20.9769 22.7138C21.1147 22.8507 21.2832 22.8018 21.3841 22.6881C27.038 28.4515 31.4114 34.1819 34.9162 41.7572C35.3295 42.6521 35.7404 43.5532 36.1574 44.4518C34.3847 42.2254 32.3316 40.2069 29.9844 38.7447C25.3244 35.841 19.4908 35.6735 14.2232 34.4741C13.9181 34.4032 13.7754 34.8103 14.0313 34.9693C17.2777 36.978 21.3693 36.9046 25.0316 37.7507C26.1695 38.0123 27.2558 38.4427 28.2892 39.0014C27.0294 38.8327 25.6689 38.8657 24.1582 38.9599C18.6186 39.3046 13.3805 37.0244 8.7476 34.1599C11.3212 33.1793 13.8246 32.0301 16.5814 31.6437C22.2858 30.8454 26.4045 35.0646 30.1074 38.5466C30.3116 38.7386 30.7422 38.5368 30.6167 38.2434C28.9166 34.2528 24.7954 31.8895 20.7838 30.6338C15.9922 29.1337 11.3802 31.8528 6.99704 33.3297C6.39056 33.5327 6.34259 34.265 6.85312 34.6013C10.5178 37.0147 14.3622 38.8584 18.6445 39.8866C23.147 40.9662 27.2644 38.9868 31.2539 41.0187C34.1596 43.4114 36.6015 46.6208 38.6707 49.4205C40.6304 52.8549 43.049 55.9285 46.6657 57.969C46.8982 58.0998 47.111 57.7856 46.9351 57.6022C41.7634 52.1885 38.6178 46.1354 35.4587 39.6959C35.3898 38.8156 35.4206 37.961 35.5645 37.1345C38.186 32.9519 43.2261 31.085 45.529 26.3584C47.6769 21.9509 45.2227 16.9345 43.418 12.9133C43.3787 12.8241 43.3356 12.7593 43.2938 12.7018C43.2495 12.379 43.1831 12.0563 43.0674 11.7299C42.9579 11.4169 42.5655 11.3337 42.3059 11.5098ZM19.8181 4.4663C20.3163 1.71176 22.9944 3.73761 23.9318 2.12376C24.435 2.52844 24.9959 2.82066 25.75 3.03706C28.0025 3.68627 29.5489 3.91492 28.9941 7.02891C28.7714 8.27842 28.0566 9.48878 27.4305 10.5769C26.1166 12.8632 23.5554 14.7778 21.9721 17.0739C22.7447 14.1959 23.9823 11.2934 22.8972 8.57184C22.8197 8.37377 22.4716 8.31752 22.4322 8.58038C22.1124 10.775 21.8061 12.8864 21.2242 15.0333C21.0766 15.5762 20.9535 16.108 20.8539 16.635C20.4984 14.6507 20.0973 12.6639 19.7984 10.7016C19.6877 9.97785 19.5511 9.26139 19.3863 8.55594C19.4527 7.09614 19.5954 5.69747 19.8181 4.4663ZM9.05392 8.87872C10.1033 8.26008 11.315 7.03623 12.1159 6.17306C13.1037 5.11061 14.4065 4.57879 15.4275 3.65572C17.8621 6.39559 18.2853 10.2444 18.7515 13.7667C18.8019 14.3205 18.8721 14.8658 18.9545 15.4124C19.0763 16.4332 19.2214 17.4871 19.4736 18.497C18.1684 15.4979 17.124 12.2556 15.2086 9.66364C15.0511 9.4509 14.698 9.57558 14.7706 9.84945C15.6342 13.1163 17.3565 16.2902 19.0246 19.2966C18.0638 18.4102 16.9517 17.6228 15.7695 16.9308C12.4825 14.2007 7.43499 9.83236 9.05392 8.87872ZM11.9486 21.6929C10.7208 21.7699 9.63457 22.1697 8.552 22.7138C7.60722 23.1894 6.7916 23.7139 5.78408 24.0953C4.37797 24.6296 0.518871 23.5782 1.94712 21.5951C2.6963 20.551 2.5413 18.4566 3.04445 17.2243C4.01507 14.8475 6.441 14.8548 8.58768 15.3341C11.732 16.0347 14.5947 17.5275 17.1535 19.4164C16.2468 19.1939 15.3119 19.0961 14.5848 19.0325C11.7456 18.7868 8.20509 18.5936 5.39288 19.0802C5.153 19.1193 5.16037 19.4506 5.33752 19.5546C7.17665 20.6207 10.0947 20.0815 12.1282 20.0876C14.5775 20.095 16.5335 20.3468 18.4919 21.3689C16.3022 21.6281 14.1703 21.556 11.9486 21.6929ZM40.8924 30.2622C39.693 31.2806 38.2008 32.2062 36.8992 33.2576C39.3055 28.3415 43.685 23.9596 42.7353 18.2843C42.6959 18.0422 42.3379 18.0214 42.2973 18.2745C41.3599 24.2421 37.0678 29.1154 35.3701 34.7015C34.9162 35.2223 34.5422 35.786 34.2802 36.407C33.2517 30.8723 36.433 25.1602 39.5946 20.7796C40.8125 19.0936 42.4093 17.1827 43.0551 15.1324C45.016 20.5155 46.2548 25.7129 40.8924 30.2622Z" fill="black"/>
</svg>
